PathFileType	4	(X/Y/Z)	46_2_68_p1_0-476_filt_butterworth.trc
DataRate	CameraRate	NumFrames	NumMarkers	Units	OrigDataRate	OrigDataStartFrame	OrigNumFrames
59.0	59.0	4	27	m	59.0	0	476
Frame#	Time	RHip			RKnee			RAnkle			RBigToe			RSmallToe			RHeel			LHip			LKnee			LAnkle			LBigToe			LSmallToe			LHeel			Neck			Head			Nose			RShoulder			RElbow			RWrist			RThumb			RIndex			RPinky			LShoulder			LElbow			LWrist			LThumb			LIndex			LPinky			
		X1	Y1	Z1	X2	Y2	Z2	X3	Y3	Z3	X4	Y4	Z4	X5	Y5	Z5	X6	Y6	Z6	X7	Y7	Z7	X8	Y8	Z8	X9	Y9	Z9	X10	Y10	Z10	X11	Y11	Z11	X12	Y12	Z12	X13	Y13	Z13	X14	Y14	Z14	X15	Y15	Z15	X16	Y16	Z16	X17	Y17	Z17	X18	Y18	Z18	X19	Y19	Z19	X20	Y20	Z20	X21	Y21	Z21	X22	Y22	Z22	X23	Y23	Z23	X24	Y24	Z24	X25	Y25	Z25	X26	Y26	Z26	X27	Y27	Z27	
0	0.0	0.3896111373408763	0.888498790981621	0.5456997494733009	0.37751119942026107	0.4297265842234521	0.5247767113875041	0.37147655730503104	0.017563717974913795	0.5066909181146422	0.355954327995087	0.025696383601304072	0.3723516547123009	0.41020189003331753	0.05369022502585925	0.3562066426096461	0.3422801462226095	-0.055382383600314784	0.5573546449030847	0.170294476966054	0.8642360185023901	0.5653063550994747	0.1597023133468302	0.4141023340509813	0.5337258921020563	0.1560249457499613	0.01473346880982257	0.49509708844619305	0.1913107905808418	0.07911176866569286	0.30844598080644486	0.14568711004855264	0.047661778216563574	0.353434027193533	0.15522990972276327	-0.03190085526839174	0.5187959086862693	0.28862009406501354	1.4033539744925314	0.5838665029259857	0.297297344629485	1.6632078598650413	0.5607716342501898	0.28758066328992354	1.5449637131512342	0.49089885505329967	0.43517820587146994	1.3160230560257333	0.5656266894827862	0.5035858304852063	1.0892784760965977	0.460672366132046	0.47740086546108923	0.8698672459207915	0.34440218052635413	0.4004534653357725	0.7597668458135471	0.34019981276681294	0.4260684548733828	0.765612136081739	0.300297942772681	0.46544557656786384	0.777769024923548	0.29321865385871926	0.13450978107027114	1.3272376833219066	0.5453794150899894	0.06166420653817807	1.0912235906416332	0.5267336603077523	0.04366755849091933	0.9322483714849024	0.3319779757855867	0.07622490237108216	0.8768055827292532	0.20210996277027737	0.050503473516787425	0.8517818007076557	0.20923092403955945	0.04066735191315628	0.8254354308378784	0.2427616515365676	
1	0.0169491525423728	0.3878297482169097	0.8893334104367128	0.5491095364039374	0.3773951625044612	0.43209179620433097	0.524017732517046	0.3718420341472578	0.016848721749143744	0.5098652747918319	0.3567006730201362	0.028471830826512334	0.3744900184310138	0.4106861578486186	0.05083584586441385	0.3638865686487326	0.34208699463185444	-0.054472680453478174	0.5606850787739873	0.16870552281795326	0.8707147046484156	0.5595234295680571	0.15875912188747945	0.41534750339093335	0.5346368597914175	0.15582910184577697	0.012992219163946758	0.49466630774161413	0.19554362438053277	0.0734080976664159	0.3119620955076849	0.15046541027498803	0.05600534207922279	0.34337374525813513	0.15631416025862588	-0.03582039977661535	0.5223332567636163	0.28873407074509694	1.403436291360347	0.5834389301086276	0.29796620697857795	1.6628600664696167	0.5628590366083551	0.28650247021908704	1.54493634210492	0.48575837718099557	0.4350515672613226	1.3159688403790661	0.5657811614465109	0.5077502493458558	1.0810231235405565	0.4798421201807913	0.4874188202769308	0.8631326434797872	0.3649296636450533	0.4196720499661675	0.7664369266284661	0.318705266206484	0.44268990753226684	0.7615396022627988	0.2997140909443495	0.4834236077586482	0.7561315219622564	0.3250270118212223	0.13358528841405015	1.3325880738073161	0.5397942260191998	0.06230386859266053	1.0947545078094474	0.5177402492287706	0.02629585347661397	0.9298235162286214	0.3377510694595879	0.05326054151385082	0.8630671289737939	0.22748728660630668	0.027244453608174964	0.8459370432889751	0.21652269246389294	0.010459708866009783	0.816151394574443	0.2729591071826906	
2	0.0338983050847457	0.3861880300771331	0.8904887104029293	0.5511350788556016	0.37721306267559207	0.43411553171475387	0.5234006251428465	0.37214778344318583	0.016253289451297365	0.5125332132795142	0.3575162604311865	0.029682174073570558	0.3771651760627506	0.4111971078155196	0.04845876798265154	0.3696394631542019	0.34196362458417295	-0.0542060070802657	0.5641715914886771	0.16743819908964488	0.8764646214724005	0.5539088959266987	0.1579620453794643	0.41653039987660456	0.5351061302924832	0.15564474558417085	0.011503580406187833	0.49432256633069904	0.19798181328099781	0.06902492308450867	0.31377270571500804	0.15439160543170935	0.06256386567672959	0.3351013784676142	0.15725490056407151	-0.039225674877107895	0.5253778047964585	0.2886779737185351	1.4034136397700838	0.5835250437601891	0.2981635620302068	1.6627938105170905	0.5631282926914318	0.2858111659390689	1.5452528438617767	0.4826037278140751	0.4349996279699904	1.3159320647437585	0.5658976215195453	0.5116401510573386	1.0748278934738358	0.4964549709176781	0.4995285111209219	0.8579763902571164	0.3781418108685459	0.43917398151027626	0.7698176041890834	0.3089473024721609	0.46034826917398264	0.7597771153122184	0.30016937995596377	0.5030942181399879	0.7441445428012314	0.34287721058576526	0.13299900616562102	1.3359268403883726	0.536210949549879	0.06091377717585857	1.0969685263315678	0.5127606116665536	0.01091767602985342	0.9275007149717976	0.34249540803684014	0.031129279315114868	0.854809456691053	0.24368499219716516	0.004334638102274059	0.8406461510660228	0.22221771529707077	-0.015792540024402862	0.8078129062738532	0.29601897720293785	
3	0.0508474576271186	0.3846775865259335	0.8919241634954667	0.5519138502869647	0.3769725393615702	0.43582383919315765	0.5229105560251723	0.37239838199737074	0.015768010638897337	0.5147331253638869	0.3583156016424714	0.029723799471224117	0.38003088372118793	0.41167675082900285	0.04666823447370154	0.37354966713291815	0.34190149001980014	-0.05451520670580927	0.5677751454980795	0.16646200957041474	0.8815300621546811	0.5484888671338257	0.157300246429024	0.4176568191436329	0.5351778779239085	0.15547242062461342	0.01025381887507859	0.4940597287878667	0.19896865870664318	0.06593549976521805	0.31410513396435336	0.15747441491852973	0.06750482867980656	0.3285467913265207	0.1580624946681317	-0.042147372028591756	0.5279638127333495	0.28855475399358943	1.4033403186922155	0.5838757526274828	0.29796067717857944	1.662946518246088	0.5619816003888285	0.28543271278675664	1.5458047733879314	0.4810401184636836	0.4350027933400269	1.3159101926978067	0.5659787181761597	0.5152294483662928	1.0704938337688996	0.510532811318527	0.5131541074706214	0.8541828895717019	0.38572100104355533	0.4585593982382603	0.7707863868397284	0.3080640388911613	0.47857007761127923	0.7597799444220178	0.3015432119387662	0.5236184554732389	0.7395491089920964	0.3502719472498532	0.13268475149161033	1.3376596547773518	0.5342470944837303	0.058027237086885314	1.0982385048878318	0.510941334293525	-0.002929225580309669	0.9253882682031634	0.34685003950625776	0.009809380856561481	0.851048824307943	0.25282396388137707	-0.018109322098249725	0.836014782954756	0.2271183984096351	-0.038459659744435715	0.8004860179830826	0.31342839215793006	
